<?xml version="1.0" encoding="utf-8"?>
<!-- Generator: Adobe Illustrator 21.0.2, SVG Export Plug-In . SVG Version: 6.00 Build 0)  -->
<svg version="1.1" id="Calque_1" xmlns="http://www.w3.org/2000/svg" xmlns:xlink="http://www.w3.org/1999/xlink" x="0px" y="0px"
	 viewBox="0 0 195 105" style="enable-background:new 0 0 195 105;" xml:space="preserve">
<style type="text/css">
	.st0{fill:#FFE500;}
	.st1{fill:#878787;}
	.st2{fill:#C90C0F;}
</style>
<g id="_3Coul">
	<path class="st0" d="M181.4,57.2c1.5,14.6-32.9,30.1-76.8,34.4s-80.6-3.8-82.1-18.4s32.9-30.1,76.8-34.4S179.9,42.6,181.4,57.2"/>
	<path class="st1" d="M103,93.6c-45.3,4.6-84.3-4.1-86.4-19.1c-0.3-2.2,0.1-4.2,1.1-6.1c-3.9,4.1-6.8,9.5-6.2,13.4
		c2.4,15.6,43,21.3,89.2,14c8.9-1.4,17.9-3.3,26.6-5.7C119.3,91.7,111.2,92.7,103,93.6"/>
	<path class="st2" d="M37.3,56.6c3.4,0,6.1,0,8.1,2.2c1.2,1.4,1.9,3.1,1.8,5c0.1,2.3-0.8,4.5-2.4,6c-2.3,2-5.8,2-8.9,2
		c0,0.9,0,1.9,0,2.8c0,1.4,0,2.3,0.1,4.1l-0.1,0.1c-3,0-3.7,0-6.4,0.1l-0.3-0.1c0.1-5,0.1-9.9,0.1-14.5c0-3.1-0.1-5-0.1-7.5l0.1-0.1
		l6.5-0.1H37.3z M35.8,67c1.1,0.1,2.2-0.1,3.1-0.5c0.9-0.5,1.5-1.6,1.5-2.8c0.1-1.1-0.5-2-1.5-2.4c-0.9-0.3-2-0.3-3-0.3L35.8,67z"/>
	<path class="st2" d="M63.9,75.9c-1.8,2.2-4.3,3.4-7.2,3.1c-1.4,0-2.8-0.1-4.2-0.7c-4.2-1.5-4.6-5.7-4.6-8c-0.1-2.3,0.4-4.5,1.8-6.4
		c2-2.4,5.4-2.6,6.8-2.6c2.3-0.1,4.6,0.5,6.4,2.2c1.1,1.1,2.2,2.8,2.2,6.6C65.2,72.2,64.8,74.2,63.9,75.9 M56.6,65.4
		c-1.9,0-2.2,2.4-2.2,5.3c0,0.9,0,1.9,0.3,2.8c0.4,1.8,1.6,1.8,1.9,1.8c0.7,0,1.4-0.5,1.5-1.2c0.4-1.4,0.5-2.7,0.5-4.1
		C58.6,67,58.1,65.4,56.6,65.4"/>
	<path class="st2" d="M77.8,76.9c-0.4,0.3-0.8,0.5-1.2,0.8c-1.2,0.7-2.6,1.1-3.9,1.2c-1.5,0-2.8-0.7-3.8-1.8
		c-1.1-1.4-1.1-3.1-1.1-6.4v-1.4c0-3.4,0-4.2-0.1-7.3l0.3-0.1l6-0.3l0.3,0.3c0,1.1,0,2.2,0,3.4c0,0.7,0,4.3,0,5.1c0,2,0,3.9,1.8,3.8
		c0.7,0,1.4-0.3,1.9-0.7l-0.3-11.5l0.1-0.3c2.7-0.1,3.4-0.1,6.1-0.3l0.3,0.3c0,3.4,0,6.6,0,10s0,4.2,0.1,6.5l-0.3,0.1
		c-2.4,0-3.1,0-6,0.1l-0.3-0.3L77.8,76.9z"/>
	<path class="st2" d="M93.8,76.6c0.1,2.8,0.1,4.9-2.2,7c-1.6,1.5-3.7,2.4-6,2.8l-0.3-0.1l-0.8-3.9l0.1-0.3c2.2-0.5,2.7-1.4,2.6-4.6
		c0-0.7-0.1-4.2-0.1-5c0-3.4-0.1-6.8-0.4-10.2l0.3-0.3c2.7-0.4,3.5-0.5,6.5-1.1l0.3,0.1c-0.1,1.9-0.1,2.8-0.1,4.6
		c0,1.4,0.1,8,0.1,9.5L93.8,76.6z"/>
	<path class="st2" d="M112.3,75.5c-1.8,2.2-4.3,3.4-7.2,3.1c-1.4,0-2.8-0.1-4.2-0.7c-4.2-1.5-4.6-5.7-4.6-8
		c-0.1-2.3,0.4-4.5,1.8-6.4c2-2.4,5.4-2.6,6.8-2.6c2.3-0.1,4.6,0.5,6.4,2.2c1.1,1.1,2.2,2.8,2.2,6.6
		C113.7,71.9,113.2,73.8,112.3,75.5 M105.1,65c-1.9,0-2.2,2.4-2.2,5.3c0,0.9,0.1,1.9,0.3,2.8c0.4,1.8,1.6,1.8,1.9,1.8
		c0.7,0,1.4-0.5,1.5-1.2c0.4-1.4,0.5-2.7,0.5-4.1C107.1,66.7,106.6,65,105.1,65"/>
	<path class="st2" d="M126.2,76.6c-0.4,0.3-0.8,0.5-1.2,0.8c-1.2,0.7-2.6,1.1-3.9,1.2c-1.5,0-2.8-0.7-3.8-1.8
		c-1.1-1.4-1.2-3.1-1.2-6.5V69c0-3.4,0-4.2-0.1-7.3l0.3-0.1l6-0.3l0.3,0.3c0,1.1,0,2.2,0,3.4c0,0.7,0,4.3,0,5.1c0,2,0,3.9,1.8,3.8
		c0.7,0,1.4-0.3,1.9-0.7l-0.3-11.5l0.1-0.3c2.7-0.1,3.4-0.1,6.1-0.3l0.3,0.3c0,3.4,0,6.6,0,10s0,4.2,0.1,6.5l-0.3,0.3
		c-2.4,0-3.1,0-6,0.1l-0.3-0.3L126.2,76.6z"/>
	<path class="st2" d="M142.3,78c-3,0-3.8,0-6.5,0.1l-0.3-0.3c0-3.4,0.1-5,0.1-8.9c0-6.4-0.3-12.6-0.8-18.8l0.1-0.1l6.5-1.2l0.3,0.3
		c0,2.2,0.4,16.8,0.4,19.1c0,3.7,0.1,5.6,0.3,9.6L142.3,78z"/>
	<path class="st2" d="M161.6,67.3c0,2.2,0,4.5,0,6.6c0,1.2,0.1,2.6,0.3,3.8l-0.1,0.1l-5.8,0.1l-0.1-0.1l-0.1-1.5
		c-1.1,1.2-2.6,2-4.2,1.9c-1.1,0-2.2-0.3-3.1-0.9c-1.8-1.2-3-3.1-3.4-5.3c-0.8-2.7-0.3-5.7,1.4-8c2.3-3,6.2-3.1,9.2-3.1h6l0.3,0.3
		L161.6,67.3z M155.5,65.2c-1.1-0.1-2.3,0.1-3.3,0.9c-1.1,1.6-1.5,3.5-0.8,5.4c0.4,1.6,1.4,2.6,2.6,2.6c0.5,0,1.1-0.3,1.5-0.7V65.2z
		"/>
	<path class="st2" d="M172,65.2v5.6c0,0.8,0,1.6,0.3,2.4c0.3,0.5,0.9,0.8,1.5,0.8c0.5,0,1.1-0.1,1.6-0.4l0.3,0.1l-0.3,3.9l-0.3,0.3
		c-1.2,0.3-2.6,0.5-3.9,0.5c-3.1,0-4.5-0.9-5.1-2.8c-0.3-0.9-0.3-2-0.3-3.1c0-1.4,0-2.8,0-4.2v-2.7l-2,0.1l-0.1-0.1l0.1-3.8l0.3-0.3
		h1.8v-4.1l0.1-0.3c2.4-0.7,3.3-0.8,5.8-1.6l0.3,0.1v5.8c0.9,0,2,0,3-0.1l0.3,0.3l-0.3,3.8l-0.3,0.3h-1.5L172,65.2z"/>
	<path class="st2" d="M60,55.2l-0.1,2.2l-0.1,0.1c-0.7,0.3-1.5,0.4-2.2,0.4c-2.2,0.3-4.2-1.4-4.5-3.5c0-0.3,0-0.5,0-0.8
		c-0.1-1.5,0.5-2.8,1.8-3.7c0.8-0.5,1.9-0.7,2.8-0.7c0.8,0,1.5,0.1,2.2,0.4l0.1,0.1c-0.1,0.9-0.1,1.2-0.3,2.2h-0.1
		c-0.3-0.4-0.8-0.5-1.4-0.5c-0.9,0-1.9,0.8-1.9,2.2c-0.1,1.1,0.7,2,1.6,2.2c0.1,0,0.3,0,0.4,0C58.9,55.6,59.4,55.4,60,55.2L60,55.2z
		"/>
	<path class="st2" d="M64,49.9c0.8-0.5,1.6-0.9,2.6-0.9c0.7,0,1.4,0.3,1.8,0.7c0.5,0.5,0.5,1.4,0.5,2.4v1.2c0,2.2,0,2.6,0.1,4.2
		l-0.1,0.1h-1.1c-0.7,0-1.1,0-1.9,0l-0.1-0.1c0-0.4,0-0.8,0-1.2c0-0.7,0-1.2,0-1.9v-0.5c0-1.5,0-2.3-0.8-2.3c-0.3,0-0.7,0.1-0.9,0.3
		c0,2.8,0,3.5,0.1,5.8L64,57.8c-1.4,0-1.8,0-3.1,0l-0.1-0.1c0-1.8,0-3.5,0-5.1c0.1-2.2,0-4.3-0.3-6.6v-0.1c1.4-0.1,1.6-0.3,3.3-0.5
		l0.1,0.1L64,49.9z"/>
	<path class="st2" d="M73.4,54.3c0,0.5,0.3,0.9,0.7,1.1c0.4,0.3,0.9,0.4,1.5,0.3c0.8,0,1.6-0.1,2.4-0.7l0.1,0.1l-0.1,2l-0.1,0.1
		l-0.5,0.3c-0.8,0.3-1.6,0.4-2.4,0.3c-1.1,0-2-0.3-3-0.8c-1.1-0.8-1.8-2.2-1.6-3.7c0-2.3,1.8-4.3,4.2-4.3c0.9,0,1.8,0.3,2.4,0.7
		c1.1,1.1,1.6,2.7,1.4,4.2l0,0.3L73.4,54.3z M75.4,52.5c0-0.4,0-1.4-0.9-1.4c-0.1,0-0.3,0-0.4,0.1c-0.5,0.3-0.8,0.8-0.7,1.4
		L75.4,52.5z"/>
	<path class="st2" d="M79.5,49.5c1.4-0.1,1.8-0.3,3.3-0.5l0.1,0.1v0.9c0.7-0.5,1.5-0.9,2.3-0.9c0.7,0,1.5,0.3,1.8,0.9
		c0.3-0.3,0.5-0.4,0.9-0.5c0.5-0.3,1.2-0.4,1.9-0.4s1.2,0.1,1.8,0.5c0.5,0.5,0.7,1.4,0.7,2.2v0.5c0,2.3,0,2.8,0.1,5.1l-0.1,0.1
		c-1.4,0-1.6,0-3.1,0L89,57.5c0-1.5,0-3.1,0-3.8s0-1.2-0.1-1.9c-0.1-0.1-0.4-0.4-0.7-0.4c-0.3,0-0.5,0.1-0.7,0.1
		c0,2.7,0,3.3,0.1,5.8l-0.1,0.1c-1.2,0-1.5,0-3.1,0l-0.1-0.1c0-0.5,0-3.1,0-3.8c0-2-0.1-2.3-0.8-2.3c-0.3,0-0.5,0.1-0.8,0.3
		c0,2.8,0,3.4,0.1,5.8l-0.1,0.1h-3.1l-0.1-0.1c0-3.4,0.1-3.7,0.1-4.3c0-1.2,0-2.4-0.1-3.5H79.5z"/>
	<path class="st2" d="M97.1,48L97.1,48c-1.5,0.3-1.8,0.3-3.1,0.5l-0.1-0.1V46l0.1-0.1l3.1-0.4l0.1,0.1L97.1,48z M97.2,57.8
		c-1.5,0-1.9,0-3.3,0l-0.1-0.1c0-1.4,0.1-2.8,0.1-4.2c0-1.2,0-2.4-0.1-3.7l0.1-0.1c1.4-0.1,1.8-0.3,3.3-0.5l0.1,0.1
		c0,1.2,0,2.3,0,3.5c0,2.4,0,3.7,0.1,4.9L97.2,57.8z"/>
	<path class="st2" d="M106.8,57.8c-1.2,0-1.6,0-3.1,0l-0.1-0.1c0-0.5,0-1.1,0-1.6v-0.7c0-1.2,0-2.4-0.1-2.8s-0.1-0.8-0.8-0.8
		c-0.3,0-0.5,0.1-0.8,0.3c0,0.5,0,2.3,0,3.1c0,1.6,0,1.9,0,2.7l-0.1,0.1c-1.2,0-1.8,0-3.1,0l-0.1-0.1c0-0.9,0-1.9,0-3
		c0-1.6,0-3.4-0.3-5l0.1-0.1c1.1-0.1,2.2-0.3,3.3-0.5l0.1,0.1v0.8c0.3-0.1,0.4-0.3,0.7-0.4c0.5-0.3,1.2-0.4,1.9-0.4
		c0.8,0,1.5,0.3,1.9,0.9c0.4,0.9,0.5,2.2,0.4,3.3v0.7C106.8,56,106.8,56.4,106.8,57.8L106.8,57.8z"/>
	<path class="st2" d="M111.2,54.4c0,0.5,0.3,0.9,0.7,1.1c0.4,0.3,0.9,0.4,1.5,0.3c0.8,0,1.6-0.1,2.4-0.7l0.1,0.1l-0.1,2l-0.1,0.1
		l-0.5,0.3c-0.8,0.3-1.6,0.4-2.4,0.3c-1.1,0-2-0.3-3-0.8c-1.1-0.8-1.8-2.2-1.6-3.7c0-2.3,1.8-4.3,4.2-4.3c0.9,0,1.8,0.3,2.4,0.7
		c1.1,1.1,1.6,2.7,1.4,4.2l-0.1,0.1L111.2,54.4z M114.8,45.5l-1.8,2.7h-0.1h-2V48c0.4-0.8,0.7-1.8,0.9-2.7l0.1-0.1h2.8L114.8,45.5z
		 M113.2,52.6c0-0.4,0-1.4-0.9-1.4c-0.1,0-0.3,0-0.4,0.1c-0.5,0.3-0.8,0.8-0.7,1.4L113.2,52.6z"/>
	<path class="st2" d="M120,54.4c0,0.5,0.3,0.9,0.7,1.2c0.4,0.3,0.9,0.4,1.5,0.3c0.8,0,1.6-0.1,2.4-0.7l0.1,0.1l-0.1,2l-0.1,0.1
		l-0.5,0.3c-0.8,0.3-1.6,0.4-2.4,0.3c-1.1,0-2-0.3-3-0.8c-1.1-0.8-1.8-2.2-1.6-3.7c-0.1-2.3,1.5-4.2,3.7-4.5c0.1,0,0.4,0,0.5,0
		c0.8,0,1.8,0.3,2.4,0.8c1.1,1.1,1.6,2.7,1.4,4.2l-0.1,0.1L120,54.4z M122,52.6c0-0.4,0-1.4-0.9-1.4c-0.1,0-0.3,0-0.4,0.1
		c-0.5,0.3-0.8,0.8-0.7,1.4L122,52.6z"/>
	<path class="st2" d="M130.8,52.6c0.3,0.1,0.7,0.3,0.9,0.5c0.5,0.5,0.9,1.2,0.9,1.9c0,1.8-1.4,3-3.9,2.8c-0.8,0-1.6-0.1-2.4-0.4
		l-0.4-0.1l-0.1-0.1l0.1-2l0.1-0.1c0.1,0.1,0.4,0.3,0.5,0.4c0.5,0.3,1.1,0.5,1.8,0.5c0.9,0,0.9-0.5,0.9-0.5c0-0.4-0.4-0.5-0.8-0.7
		l-0.7-0.3c-0.5-0.1-1.1-0.5-1.5-0.9c-0.8-1.2-0.7-2.8,0.5-3.8c0.8-0.5,1.8-0.7,2.7-0.7c0.8,0,1.8,0.1,2.6,0.4l0.1,0.1
		c-0.1,0.9-0.1,1.2-0.1,1.9H132c-0.5-0.4-1.2-0.7-1.9-0.7c-0.8,0-0.8,0.5-0.8,0.5c0,0.3,0.3,0.4,0.7,0.5L130.8,52.6z"/>
	<path class="st1" d="M176.3,40.7c0.4,0.1,0.8,0.1,0.9-0.3c0.1-0.5,1.1-5.1,1.2-5.7c0.1-0.9-0.3-1.8-0.9-2.4
		c-0.9-0.7-3.9-1.6-3.9-3.9s0.1-2.8,0-3.9s-0.5-1.8,0.5-3.3c1.9-2.8,3.5-5.8,4.7-8.9c0.7-1.9,0.8-3.8,0.5-5.7
		c-0.1-1.1-0.3-2.6-1.1-2.6c0,0-0.8,0.1-0.7,1.9c0.1,1.8,0.4,7.2-2,11s-2.7,3.7-3,3.9c-0.8,0.5-1.8,0.7-2.7,0.3
		c-1.5-0.3-3.5-0.9-5.3-1.1c-1.5,0-2.8-0.4-4.2-0.9c-1.2-0.5-2.8-1.6-3.5-2c-1.4-0.7-2.3-1.8-3-3.1c-0.4-0.8-0.8-1.9-0.8-2.8
		c0.3-1.5,0.8-3,1.4-4.5L153,8.1c-0.1,0.1-0.4,0.3-0.5,0.4c-0.4,0.3-0.9-0.3-1.6-0.3c-0.4,0-0.7,0-1.1-0.1l-0.7-1.5
		c0,0-0.1-0.5-0.1-0.8c-0.1,0.8-0.4,1.6-0.4,2.6c-0.5,0.3-0.9,0.5-1.4,0.9c-0.3,0.4-0.3,0.9,0,1.4c0.3,0.7,1.8,1.4,2,2
		c0.3,0.7,1.6,2.3,1.5,3.8c-0.1,1.5-0.8,3.1-0.8,3.7c0,0.5,0,1.8,0.1,2.7c0.1,1.4-0.5,2.6-1.6,3.4c-1.5,1.2-2.2,2-3.3,2.8
		c-0.9,0.9-2,1.8-3.3,2.4c-0.9,0.3-1.2,0-1.6,0.4c-0.3,0.3-0.5,0.7-0.5,1.1v0.1c-5.6,0-11.2,0.5-16.8,1.6c-1.1,0.3-0.1,0.4-0.1,0.4
		c54.6,0.9,61.8,16,62.3,16.8c0.3,0.5,0.5,0.9,0.5,0.3C184.5,47.4,181.1,43.6,176.3,40.7 M170,35.4c0.3-0.3,0.5-0.5,0.5-0.9
		s0-2.2,0-2.2l3.5,1.1c0.7,0.3,2.7,0.7,2.7,1.6s-0.3,2.4-0.3,2.4l-0.5,1.9c0,0-0.7-0.1-0.7,0.3c0,0.1,0,0.3-0.1,0.4
		c-2.3-1.2-4.6-2.2-7-3L170,35.4 M157.9,27.3c0.3-0.4,1.4-1.2,3.4-0.1s3.3,1.6,3.8,2.3c0.5,0.7,3,3.7,3.3,4.2
		c0.3,0.5,0.5,0.8,0.3,1.2c-0.4,0.5-0.8,0.9-1.4,1.4c-0.4,0.1-0.8,0.3-1.4,0.4c-3.5-0.9-7-1.6-10.7-2.2c0.3-0.9,0.7-2.7,0.8-3.1
		C156.2,31,157.5,27.6,157.9,27.3 M145.5,30.6c0.7-0.5,3.7-2.3,4.2-2.7s2.4-1.6,2.7-1.8c0.3-0.1,1.4-0.4,1.8,0.3
		c0.4,0.8,0.7,1.6,0.5,2.6c-0.1,1.1,0,2.7-0.1,3.3c-0.1,0.7-0.5,1.2-1.1,1.6c-0.3,0.1-0.4,0.3-0.5,0.4c-3.9-0.4-7.9-0.5-11.5-0.7
		L145.5,30.6"/>
</g>
</svg>
